<svg xmlns="http://www.w3.org/2000/svg" viewBox="0 0 80 80">
  <g transform="translate(8,0)">
    <path d="M14.46,40.32c.17,2.29,1.7,3.62,3.47,4.66,3.12,1.75,6.55,3.04,10.26,3.17-1.41,2.12-1.58,5.79.02,7.84l-1.59.56-5.78-2.92-8.44-4.31c-.46-.23-.65-.55-.44-1.11l-2.13-1.01c-1.07-.51-1.48-1.38-1.81-2.65l2.2.85-.14-1.05-2.3-.97c-.02-.52,0-.9.06-1.41l2.35.88.23-.88-2.33-.99c.19-.47.42-.94.65-1.3l2.12.94c.23-.21.38-.5.41-.8l-1.98-.97,1.06-1.09,1.9.98c.21-.19.35-.35.55-.62l-1.59-.94c.3-.19.78-.51,1.12-.57l1.38.75c.21.11.57-.17.63-.42l-1.12-.7c.24-.16.68-.4.96-.42l1.06.61c.33-.14.21-.53.3-.79.55-1.54,1.25-2.94,1.98-4.41.1-.2.06-.44-.08-.61-.48-.59-.74-1.5-.33-2.2l1.31-2.24c.58-.99,1.68-1.3,2.71-.85l1.78.78,3.57-1.31c.5.98.7,1.94.89,2.99l.17.93.8-.41c.04-1.28-.27-2.4-.77-3.53-.61-1.36-1.76-2.29-3.23-2.59-3.33-.68-6.43,1.14-8.31,3.8s-2.66,5.21-5.2,7.68c-2.91,2.82-7.17,3.79-10.98,2.41.18-.49.38-.9.65-1.31,3.25,1.08,6.72.31,9.21-2.03,3.18-3,3.58-6.52,7.01-9.61,2.63-2.37,6.89-3.51,9.99-1.49,2.31,1.5,2.62,3.9,3.05,6.49l.99.09c-.08-1.35-.36-2.69-1.05-3.97l2.18-.91c2.02-.84,4.28-.94,6.4-.41.49.12.87.21,1.33-.05,1.84-1.07,5.31.65,6.91,1.8.57.41.98.9,1.11,1.62l2.09,1.36c2.94,1.91,2.46,4.22,3.06,5.07.38.54.87.95,1.19,1.49,1.08,1.84-.03,3.52-1.73,4.46l-7.14,3.95c-1.02.56-2.06.94-3.22,1.08s-2.2-.24-3.11-.9c-.99-.72-1.84-1.56-2.69-2.45-2.77-2.91-5.25-5.29-8.79-7.29-2.03-1.14-4.01-2.21-6.09-3.23-.54-.27-2.7-1.27-3.05-.73-.07.11-.11.4-.06.55.32.99,1.42,1.5,2.4,1.18.42-.14.66-.04,1.03.17l5.91,3.33-.54,1.9c1.05.32,2.11.52,3.05-.12.42.18.87.58,1.22.96-2.93,1.04-6.94-.72-9.27-2.35-.77-.54-1.4-1.14-1.91-1.94-.23-.36-.77-.76-1.2-.47s-.37,1.09-.13,1.55c.44.87,1.11,1.53,1.91,2.1,2.03,1.45,4.36,2.35,6.83,2.77,1.68.28,3.26.07,4.81-.58,1.28,1.2,2.43,2.35,3.61,3.57l2.63,2.72-3.57.03c-1.25.01-2.4.36-3.55.82l-2.05.94c-.94.43-2.06.29-3.1.17-2.45-.28-4.75-1.02-6.94-2.1-2.03-1-3.92-2.49-4.11-4.9l-.08-1.05c-2.32,1.3-4.1,3.41-3.09,6.24.55-.19.89-.65,1-1.23.22-1.16.67-2.22,1.51-3.08ZM20.49,26.81l11.7,5.97c1.57.8,5.66,2.54,7.32,2.12,2.1-.52,4.05-1.38,5.89-2.49,1.03-.62,1.89-1.41,2.6-2.33.4-.52.44-1.16.04-1.66s-.89-.96-1.43-1.37c-.73-.56-1.14-.01-2.5-.76l-4.38-2.43c-.69-.38-1.37-.66-2.24-.79.15.18.33.36.55.49l7.82,4.95c.25.16.46.54.52.77.21.81-1.49,1.89-2.15,2.26-1.44.8-2.91,1.47-4.52,1.92-.4.11-.94-.19-1.26-.41-1.33-.9-2.49-1.9-3.75-2.9-.7-.56-1.7-.62-2.57-.45l-2.68.51c-2.97-1.51-5.71-2.94-8.82-4.14-.14-.05-.46.1-.46.23s.11.41.31.52ZM39.14,28.61l3.15-1.31c.09-.04.29-.27.22-.31-.05-.03-.22-.13-.29-.14-2.5-.31-6.05.46-7.85,2.23l1.7,1.14c.98-.67,1.96-1.15,3.07-1.61ZM40.93,41.14c.58-1.08.96-2.22,1.19-3.4.11-.56-.09-1.13-.65-1.36-1.21-.5-2.55-.75-3.87-.64-.68.06-1.15.57-1.35,1.17-.36,1.06-.17,2.17.61,2.98.74.77,1.61,1.4,2.58,1.8.62.26,1.16.08,1.49-.55ZM17.28,46.59c.18.1.52.11.66,0s.28-.4.26-.54l-3.36-1.92c-.21-.12-.54-.04-.64.11-.12.17-.11.56.05.65l3.03,1.69ZM17.37,47.65l-4.03-2.17c-.13-.07-.5-.11-.59,0s-.14.32-.17.51l4.69,2.48c.24-.18.37-.67.1-.82ZM17.37,50.01c.12-.26.14-.53.06-.7l-4.74-2.41c-.16-.08-.43.48-.27.56l4.95,2.55ZM25.38,50.33c.16-.1.29-.49.33-.7l-5.33-2.48c-.17.05-.34.15-.4.23s-.08.42.02.47l4.57,2.34c.21.11.65.23.81.13ZM25.05,52.29c.16-.32.23-.69.07-.86l-5.8-2.92c-.2-.03-.46.57-.3.68l2.39,1.27c1.21.64,2.36,1.24,3.64,1.82ZM24.98,53.99c.28-.2.31-.62.1-.73l-6.08-3.1c-.18.06-.37.54-.24.61l6.22,3.22Z"/>
    <path d="M27.84,51.4l2.62,1.15c.18-.33.27-.58.28-.9l-2.67-1.32c.11-.52.32-1,.62-1.52l2.77,1.42.47-.73c-.71-.49-1.37-.86-2.14-1.25-.1-.05-.25-.19-.34-.3.33-.41.67-.71,1.13-.99l2.67,1.53c.26-.03.56-.24.74-.54l-2.24-1.45c.29-.21.95-.55,1.34-.41l2.47,1.48.78-.31-2.03-1.4c.39-.14.87-.26,1.22-.26l2.31,1.38c.2.12.63-.03.94-.19l-1.88-1.31c.32-.1.81-.22,1.1-.2.66.36,1.22.7,1.83,1.09.41.26.85.35,1.3-.02l-1.94-1.31c.52-.19,1.08-.33,1.53-.31.81.32,1.44.83,2.19,1.28.25.15.66.01.95-.15l-1.68-1.21c.38-.12.84-.22,1.17-.22l1.89,1.13c.23.14.68-.04.9-.2l-1.56-1.08c.23-.15.56-.3.83-.35l2.05,1.21c.2.12.68-.04.91-.18-.78-.59-1.55-1.03-2.39-1.46,2.55-1.39,4.86-2.77,7.12-4.57v1.37c-.02.86.96.02,1.8.92.61.66,1.11-.14,2.02.6.11.09.44.23.58.21.53-.09.81.34,1.19.54,1.72.9,2.7,2.74,2.27,4.72-.33,1.51-1.34,2.8-2.73,3.5-.43.22-.99.22-1.39.48s-.72.67-1.24.52c-1.31-.39-.92.98-2.78.65-.48-.08-1.02.98-1.78.77-1.23-.33-1.12,1.17-2.7.69-.23.07-.56.27-.76.44-.94.76-1.25-.14-2.13.69-1.14,1.06-1.34-.12-2.26.73-.29.27-.73.54-1.12.45-1.41-.33-1.15,1.09-2.71.71-.59-.14-.75.9-2.1.7-.74-.11-1.19,1.17-2.69.54-1.05-.44-1.34.42-2.39-.32-.63-.44-2.51-1.03-3.26-1.45-.47-.73-.77-1.48-.93-2.32l2.47,1.06c.06-.37.06-.73,0-1.1l-2.64-1.27c-.05-.45-.04-.83.04-1.37ZM56.57,43.18l-1.78-.97c-.38-.09-.72-.15-1.07.12l2.02,1.2c.2.1.69-.14.83-.35ZM54.54,43.73c-.71-.42-1.39-.79-2.15-1.17-.25-.13-.66.03-.89.23l1.75.98c.39.22.88.27,1.28-.04ZM52.27,44.12l-1.71-1.04c-.27-.17-.67-.1-1.01.11l1.73,1.04c.29.17.71.09.99-.12ZM50.37,44.51c-.63-.4-1.25-.78-1.88-1.12-.18-.1-.61.11-.83.22l1.95,1.13c.16.09.59-.09.76-.23ZM35.91,56.68l21.35-6.97c1.26-.41,2.13-1.41,2.38-2.69.16-.84.01-1.77-.66-2.36-.53-.47-1.32-.68-2.08-.53l-18.86,3.71c-1.08.21-2.05.43-3.05.81-1.83.71-3.15,2.29-3.32,4.23-.11,1.23.17,2.41,1.12,3.22.81.69,1.98.95,3.12.58Z"/>
    <path d="M35.45,32.8l-1.16-.35c-1.09-.48-2.12-.98-3.17-1.56,2.24-.59,3.01.31,4.33,1.91Z"/>
    <path d="M40.05,41.18c-.03.09-.28.13-.3.08-.03-.07-.09-.25-.06-.36l1.15-3.92c.02-.08.18-.16.24-.17.07-.01.27.16.23.28l-1.25,4.1Z"/>
    <path d="M39.24,40.46c-.04.15-.16.25-.22.27-.07.02-.28-.2-.25-.28l1.04-3.53c.03-.12.11-.23.15-.29s.35.07.33.15l-1.04,3.68Z"/>
    <path d="M38.35,39.88c-.04.13-.19.26-.27.25-.46-.07.63-3.13.79-3.59.02-.07.19-.17.25-.16s.17.22.14.3l-.92,3.2Z"/>
    <path d="M37.46,39.2c-.02.08-.17.22-.23.25-.08.04-.25-.21-.22-.29l.76-2.59c.03-.09.24-.24.32-.2s.15.23.12.33l-.75,2.51Z"/>
    <path d="M35.9,55.64c-.8.26-1.6.16-2.22-.33-.74-.6-1.05-1.45-.97-2.43.11-1.32.97-2.46,2.19-3.04.93-.44,1.89-.68,2.94-.89l19.11-3.84c.53-.11,1.23-.02,1.52.46.66,1.11.05,2.67-1.23,3.08l-15.75,5.15-5.6,1.84Z"/>
  </g>
</svg>
