<?xml version="1.0" encoding="UTF-8"?>
<svg id="Layer_1" xmlns="http://www.w3.org/2000/svg" baseProfile="tiny" version="1.2" viewBox="0 0 137.1 137.1">
  <!-- Generator: Adobe Illustrator 30.1.0, SVG Export Plug-In . SVG Version: 2.1.1 Build 136)  -->
  <defs>
    <style>
      .st0 {
        fill: #353e47;
      }
    </style>
  </defs>
  <g transform="translate(0,36.375)">
  <polygon class="st0" points="129.11 36.33 130.17 36.33 130.17 40.13 131.12 40.13 131.12 36.33 132.18 36.33 132.18 35.58 129.11 35.58 129.11 36.33"/>
  <polygon class="st0" points="135.62 35.58 134.86 38.67 134.85 38.67 134.13 35.58 132.6 35.58 132.6 40.13 133.53 40.13 133.53 36.62 133.54 36.62 134.38 40.13 135.28 40.13 136.16 36.62 136.17 36.62 136.17 40.13 137.1 40.13 137.1 35.58 135.62 35.58"/>
  <path class="st0" d="M52.59,38.49c-1.99,0-3.61,1.62-3.61,3.61-.16,1.88,1.24,3.53,3.12,3.69.16.02.33.02.49.01,1.89.11,3.5-1.33,3.62-3.21.01-.16,0-.33-.01-.49,0-1.99-1.62-3.61-3.61-3.61Z"/>
  <path class="st0" d="M98,20c-.61-.58-1.42-.91-2.27-.92h-.22c-.89.01-1.74.33-2.41.92-.49.39-.82.94-.94,1.55-.12.18-.17.4-.15.62-.17,1.27-.23,2.55-.17,3.83h1.83c.91-.08,1.82-.25,2.7-.5.61-.26,1.16-.63,1.63-1.1,1.22-.92,1.45-2.65.53-3.87-.15-.2-.33-.38-.53-.53Z"/>
  <path class="st0" d="M77.07,35.96c-1.99,0-3.61,1.62-3.61,3.61-.16,1.88,1.23,3.54,3.11,3.7.17.02.33.02.5.01h0c1.89.1,3.5-1.34,3.62-3.22.01-.16,0-.33-.01-.49,0-1.99-1.62-3.61-3.61-3.61Z"/>
  <path class="st0" d="M34.32,35.64c-1.48-.64-3.13-.72-4.67-.24-.54.15-1.07.33-1.59.56-.41.18-.95.42-.91,1,0,.16.12.89.14,1.11.13,1,.22,2,.33,3,0,.31.08.62.1.92.09,1.48.09,2.96,0,4.44,0,.32-.22,2.84-.32,3.34.59-.05,2-.27,2-.27,5.33-.73,8-3.38,8-7.86,0-2.32-.88-4.91-3.08-6Z"/>
  <path class="st0" d="M126.05,36.34c-.11-.28-.25-.55-.42-.8-.83-1.52-2.35-2.45-5-2.45-1.75-.06-3.42.76-4.45,2.18v-1.42c0-.57-.17-.61-.64-.62h-6.49c.81-.8,1.31-1.9,1.31-3.12,0-2.42-1.97-4.39-4.39-4.39-1.05,0-2,.38-2.75.99l.15-.24c1.75-2.63,1.3-6.48-.31-9-1.01-1.74-2.66-3.02-4.6-3.55-1.83-.45-3.74-.39-5.54.16-3.17,1.02-5.71,3.41-6.92,6.51l-.21.63c-.17.48-.3.97-.37,1.47v.44h-.09c-.46-.19-.9-.43-1.3-.72l-.13-.11c-.59-.49-1.1-1.06-1.53-1.7-3.11-4.88-6-10.09-10-14.31-2.21-2.5-4.94-4.48-8-5.8-1.86-.62-3.87-.62-5.73,0-1.21.3-2.36.78-3.43,1.41-1.37.9-2.62,1.97-3.72,3.19-1.12,1.29-2.13,2.67-3,4.14-2.79-2-6-4.25-9.54-4.52h-.13c-2.06-.21-4.15.18-6,1.11-3,1.69-5,4.52-7.16,7.09-.52.72-1.11,1.39-1.75,2-2.32-.89-4.78-1.35-7.26-1.36-3.13.17-6.17,1.08-8.87,2.66-.66.4-1.29.85-1.89,1.35-.3.25-.59.52-.88.79-.58.56-1.13,1.15-1.65,1.77C1.39,22.79.27,25.99.12,29.3c-.12.9-.12,1.82-.12,2.7,0,1.79.18,3.58.55,5.34.57,2.71,1.75,5.26,3.45,7.44.5.63,1.03,1.22,1.6,1.79,2.21,2.31,4.98,3.99,8.05,4.89,1.68.46,3.39.82,5.11,1.08-.63,3.51-1.56,6.97-2.76,10.33l.05.09.08.08c9.72.64,23.54-.94,32.35-6.62,1.53.36,3.08.61,4.64.74,1.09.06,2.19.06,3.28,0,.98-.02,1.95-.13,2.91-.31v7.15c0,.12,0,.18.06.24s.13.07.25.07h7.53c.04-.05.11-.08.18-.07l8.43-9c3.59-.12,8.2-.18,11.86-.12,3.66.06,7.43.31,11.08.68,3.65.37,7.43.81,11.15,1.36,3.72.55,6.47,1.37,10.18,2.17h.13c.06-.06.12-.06.18-.12l6.23-6.92v-11.57c0-.47-.01-.93-.04-1.38.02-1.02-.14-2.04-.48-3ZM30.16,54.33c-2.68.53-5.4.86-8.13,1,.16-.92.41-2.33.47-2.66.25-1.46.42-2.93.5-4.4.21-2.96-.08-5.93-.85-8.8-.17-.58-.6-1.56-1.4-1.42-1.53.26-1.71,2.74-1.71,2.74-.9-1.82-.65-4.01.65-5.57,2.43-3.27,6.85-4.55,10.73-4.65,2.86-.08,6.06.28,8.33,2.18.69.58,1.3,1.25,1.81,2,1.35,1.9,2.09,4.17,2.1,6.5.01,7.57-6.66,12.09-12.5,13.08ZM52.59,49.77c-4.51,0-8.12-3-8.12-7.67s3.61-7.67,8.12-7.67,8.13,3,8.13,7.67-3.62,7.67-8.13,7.67ZM67.16,48.49h-4.51v-23.07h4.51v23.07ZM78.51,47.25c-1.76.15-3.49-.57-4.63-1.92h-.06v8.42h-4.52v-21.48h4.16v1.92h.06c1.06-1.42,2.71-2.26,4.48-2.28,4.33,0,7.19,3.13,7.19,7.55,0,4.06-2.53,7.79-6.68,7.79ZM102.4,24.77c-.15.35-.32.68-.52,1-.37.57-.84,1.08-1.37,1.5-.22.18-.45.35-.69.5-.32.21-.66.41-1,.6-1.6.83-3.39,1.24-5.2,1.17l-2.02.06v5.6h.06c.77-1.54,2.39-2.46,4.1-2.34,4.57,0,5.41,3,5.41,6.92v8.7l-4.51-.32v-7.48c0-1.68,0-3.85-2.35-3.85s-2.71,1.83-2.71,3.73v7.28h-4.51v-18.51c-.17-.01-.34-.03-.53-.04-1.18-.21-5.08-1.23-5.08-1.23l-3.7-1.33-6.67-2.38c-2.54-1.07-5.25-1.68-8-1.81-1.69-.05-3.37.16-5,.62-2.63.7-5.11,1.9-7.3,3.53-1.51,1.11-3,2.25-4.41,3.47-1.41,1.22-2.4,2.6-3.72,3.84-.56.54-.94-.29-1.27-.64-.44-.48-.91-.93-1.41-1.36-.71-.62-1.51-1.14-2.37-1.54-1.92-.89-4.01-1.39-6.13-1.46-1.24-.05-2.48.02-3.71.22-3.24.57-6.37,1.67-8.67,4.13-1.94,2.12-2.45,5.19-1.3,7.82,0-.09-.61-.21-.72-.25l-.72-.26-1.38-.52c-.89-.35-1.77-.72-2.63-1.13-1.5-.71-2.91-1.57-4.23-2.58-1.09-.82-2.1-1.74-3-2.77-.79-.88-1.36-1.93-1.69-3.07-.42-1.6-.49-3.26-.2-4.89.1-.49.22-.97.37-1.45.25-.79.58-1.55,1-2.27.23-.4.48-.78.76-1.14.89-1.18,1.97-2.19,3.21-3,1.39-.86,2.87-1.57,4.41-2.11l1.67-.37c2.2-.42,4.48-.32,6.63.31.76.21,1.51.48,2.23.8.18.07.25.13.43.19.56.25,1.74.87,3.53,1.86,1.05.66,2.17,1.21,3.35,1.61l.55.18c1.53.44,3.16.21,4.52-.61.52-.37.99-.78,1.43-1.24,1.23-1.32,1.59-3.22.93-4.9-.54-1.66-1.86-2.96-3.53-3.46-1.67-.49-3.47-.07-4.74,1.11.28-.79.69-1.54,1.2-2.21.46-.59,1.03-1.09,1.67-1.48.37-.29.79-.52,1.24-.68,1.48-.56,3.07-.77,4.64-.62.85.08,1.69.28,2.48.62.51.12.99.33,1.42.62.55.2,1.07.47,1.55.8.77.42,1.51.87,2.23,1.36.45.28.89.59,1.3.93l.06.06c.84.57,1.63,1.21,2.36,1.92,2.02,1.49,4.65,1.87,7,1,2.35-.8,3.53-2.1,3.46-3.9.1-1.69-.72-3.31-2.16-4.21-1.37-.66-2.93-.8-4.4-.42.21-.32.46-.61.74-.87.62-.56,1.31-1.04,2.05-1.42.39-.22.8-.39,1.23-.5,1.35-.5,2.79-.71,4.22-.62.43.06.86.19,1.36.31,1.05.36,2.03.88,2.91,1.55.59.35,1.14.74,1.67,1.18,2.77,2.29,5.17,4.99,7.13,8,1.38,2,2.6,4.11,3.89,6.16.96,1.75,2.19,3.34,3.66,4.69l.06.06c1.07.95,2.46,1.47,3.9,1.46l.13-1.59c.09-1.29.43-2.55,1-3.71,1.41-2.45,3.87-4.13,6.67-4.55,1.04-.15,2.1-.08,3.11.21,1.6.44,2.99,1.46,3.9,2.85.21.36.4.73.56,1.11.24.47.41.97.5,1.49.23,1.33.12,2.69-.34,3.96ZM108.3,49.1l-4.51-.32v-14.3h4.51v14.62ZM106.05,32.49c-1.45,0-2.62-1.17-2.62-2.62s1.17-2.62,2.62-2.62,2.62,1.17,2.62,2.62-1.17,2.62-2.62,2.62ZM124.69,52l-4.52-1v-8.13c0-1.68,0-3.85-2.34-3.85s-2.71,1.83-2.71,3.73v7.25l-4.52-.64v-13.95h4.34v2h.06c.88-1.51,2.52-2.41,4.27-2.34,4.58,0,5.42,3,5.42,6.92v10.01Z"/>
  </g>
</svg>